<svg xmlns="http://www.w3.org/2000/svg" width="181" height="181" style="shape-rendering:geometricPrecision;text-rendering:geometricPrecision;image-rendering:optimizeQuality;fill-rule:evenodd;clip-rule:evenodd"><path style="opacity:.843" fill="#fefefe" d="M101.5 23.5a9.864 9.864 0 0 1 6 1 43.718 43.718 0 0 0 3 5.5c6.253.656 7.253 3.156 3 7.5-.952 1.545-1.285 3.212-1 5 5.51.334 10.01 2.668 13.5 7l15 22a83.719 83.719 0 0 1 2 14 2879.15 2879.15 0 0 1 30 49 25.238 25.238 0 0 1 0 10c-4.532 5.594-10.366 7.761-17.5 6.5-1.69-3.525-1.024-6.525 2-9a442.408 442.408 0 0 1-24.5-25.5 456.164 456.164 0 0 1-22.5 39.5c-6.512 1.681-13.012 1.847-19.5.5-1.417-3.965-.084-6.299 4-7a1183.357 1183.357 0 0 1 19.5-58 50402.257 50402.257 0 0 0-16.5-29 55.772 55.772 0 0 1-2-12 25.56 25.56 0 0 1-5.5-9c-6.302-2.228-6.635-5.228-1-9-.713-7.296 2.287-9.63 9-7 1.538.047 2.538-.62 3-2Zm4 17c2.841 1.188 3.508 3.188 2 6-5.202 2.234-8.869.734-11-4.5 3.195-.18 6.195-.68 9-1.5Zm26 52c1.97.662 3.97 1.328 6 2 .483 2.417-.683 4.084-3.5 5-4.351-1.334-5.185-3.667-2.5-7Z"/><path style="opacity:.852" fill="#fefefe" d="M22.5 28.5a63.533 63.533 0 0 0 15 1 32.34 32.34 0 0 0 8.5 8c.667 1.333.667 2.667 0 4-3.15 1.948-3.983 4.615-2.5 8 6.057 1.274 10.557 4.607 13.5 10a149.701 149.701 0 0 0 6 16l1 15a344.447 344.447 0 0 1 22 37 30.499 30.499 0 0 1 0 11c-2.83 5.887-7.33 8.72-13.5 8.5-1.507-1.473-2.174-3.307-2-5.5.424-2.37.59-4.704.5-7l-20-16a466.907 466.907 0 0 0-21.5 35 22.215 22.215 0 0 1-6 2.5 112.97 112.97 0 0 1-15 .5 18.438 18.438 0 0 1 .5-6 336.94 336.94 0 0 0 7-7L32.5 90A801.223 801.223 0 0 1 22 65.5a40.242 40.242 0 0 1-1.5-7.5 35.55 35.55 0 0 0 .5-12.5c-2.4-.898-3.9-2.565-4.5-5a32.128 32.128 0 0 0 6-12Zm3 19c3.798-.983 7.798-1.317 12-1-.04 5.266-2.708 7.099-8 5.5-1.57-1.397-2.904-2.897-4-4.5Zm26 54c8.159.751 8.825 3.084 2 7-3.003-1.678-3.67-4.011-2-7Z"/></svg>