<?xml version="1.0" encoding="UTF-8"?>
<svg xmlns="http://www.w3.org/2000/svg" version="1.1" xmlns:xlink="http://www.w3.org/1999/xlink" viewBox="0 0 1039.7 260.3">
  <defs>
    <style>
      .cls-1 {
        fill: none;
      }

      .cls-2 {
        clip-path: url(#clippath-1);
      }

      .cls-3 {
        isolation: isolate;
      }

      .cls-4 {
        fill: #1d1d1b;
      }

      .cls-5 {
        clip-path: url(#clippath);
      }
    </style>
    <clipPath id="clippath">
      <rect class="cls-1" x="-532.4" y="-1247.9" width="2034.8" height="2877.5"/>
    </clipPath>
    <clipPath id="clippath-1">
      <rect class="cls-1" x="-534.1" y="-1246.5" width="2034.8" height="2877.5"/>
    </clipPath>
  </defs>
  <!-- Generator: Adobe Illustrator 28.6.0, SVG Export Plug-In . SVG Version: 1.2.0 Build 709)  -->
  <g>
    <g id="Capa_1">
      <g id="Capa_1-2" data-name="Capa_1">
        <g class="cls-5">
          <g>
            <g class="cls-3">
              <g class="cls-3">
                <path class="cls-4" d="M161.3,210.6c2.8,9,5.4,16,7.6,20.9,2.2,5,5,8.4,8.3,10.3,1.4.7,3,1.2,4.6,1.4,1.7.2,3.2.5,4.6.7,1.4.2,2.7.7,3.7,1.2,1.1.6,1.6,1.6,1.6,3,0,3.1-2.4,4.6-7.1,4.6s-5.6-.4-11-1.1c-5.4-.7-12.9-1.1-22.4-1.1s-10.4.3-14.9.9c-4.5.6-8.8.9-12.8.9s-4.5-.2-5.7-.7c-1.2-.5-1.8-1.7-1.8-3.6,0-3.5,3.8-5.6,11.4-6,4.7-.5,8.1-1,10.1-1.6,2-.6,3-2.8,3-6.6s-.2-2.5-.5-5.5c-.4-3-1.1-6.4-2.3-10.5l-13.8-44.4c-.7-2.8-2.3-4.3-4.6-4.3h-53.6c-1.2,0-2.3.4-3.2,1.2-.9.8-1.7,2.1-2.1,3.7l-11.4,42.6c-1.7,5.9-2.5,10.8-2.5,14.6s.9,6,2.7,7.3c1.8,1.3,4.3,2.2,7.6,2.7,5.2.7,9.1,1.5,11.5,2.5,2.5.9,3.7,2.7,3.7,5.3s-2.1,4.3-6.4,4.3-6.2-.5-10.8-1.4c-4.6-.9-10.1-1.4-16.5-1.4s-9.1.4-13,1.2c-3.9.8-7.4,1.2-10.5,1.2s-5.7-1.5-5.7-4.6.7-3.4,2-3.9c1.3-.5,3-.9,5-1.2,2-.4,4.2-.8,6.6-1.4,2.4-.6,4.6-2.1,6.7-4.4,1.9-2.4,3.7-6.2,5.5-11.5,1.8-5.3,4-12.2,6.6-20.8L93.8,31c.9-2.6,1.7-4.7,2.1-6.2.5-1.5,1.7-2.3,3.6-2.3s4.3,1.8,5.1,5.5c.8,3.7,2.2,8.6,4.1,14.7l52.5,167.9ZM91.4,75.7c-.7,0-1.4.9-2.1,2.8l-21.7,74.2c-.5,1.4-.7,2.4-.7,2.8,0,1.7,1.1,2.5,3.2,2.5h43.7c2.6,0,3.9-1.2,3.9-3.6s-.1-2-.4-2.5l-23.8-73.1c-.7-2.1-1.4-3.2-2.1-3.2Z"/>
                <path class="cls-4" d="M216,118.7c0,1.7.5,2.5,1.4,2.5s1.5-.6,2.5-1.8l6.4-9.2c9.9-13.5,20.5-20.2,31.6-20.2s10.5,1.6,13.8,4.8c3.3,3.2,5,7.2,5,11.9s-1.2,8.6-3.7,11.5c-2.5,3-5.3,4.4-8.3,4.4s-4.4-.7-6.2-2.1c-1.8-1.4-3.6-3-5.3-4.8-1.8-1.8-3.6-3.4-5.5-4.8-1.9-1.4-4.3-2.1-7.1-2.1s-5.3,1.1-8,3.2c-2.7,2.1-5.3,5.5-7.6,10.1-2.4,4.6-4.3,10.4-5.7,17.5-1.4,7.1-2.1,15.5-2.1,25.4v58.3c0,6.1.5,10.5,1.4,13.1.9,2.6,3.2,4.6,6.7,6,3.1,1.2,5.8,1.9,8.2,2.1,2.4.2,4.4.4,6,.5,1.7.1,2.9.4,3.7.7.8.4,1.2,1.4,1.2,3,0,2.6-1.9,3.9-5.7,3.9s-7.3-.3-12.6-.9c-5.3-.6-11.6-.9-18.8-.9s-8.9.2-12.8.7-7.3.7-10.1.7-3.3-.2-4.1-.5c-.8-.4-1.2-1.4-1.2-3,0-2.4.8-3.5,2.5-3.5s4.8-.7,8.9-2.1c3.1-1.2,5-3.2,5.9-6.2.8-2.9,1.2-7.5,1.2-13.6v-93.7c0-4.2-.8-7.1-2.3-8.5-1.5-1.4-3.2-2.2-5-2.5-1.8-.2-3.4-.4-4.8-.4s-2.1-.8-2.1-2.5,1.2-3.4,3.7-4.4c2.5-1.1,5.3-2.7,8.3-4.8,5.4-3.8,9.5-7.5,12.2-11.1,2.8-3.7,4.9-5.5,6.3-5.5s1.8.8,1.9,2.3c.1,1.5.2,3.6.2,6.2v20.2Z"/>
              </g>
              <g class="cls-3">
                <path class="cls-4" d="M370.2,95.4c7,3.7,10.5,8.9,10.5,15.8,0,14.7-1.8,22-5.3,22s-4-1.4-5-4.1c-.9-2.7-2.7-6.6-5.3-11.5-4-7.1-8.1-12.4-12.2-16-4.1-3.6-9.3-5.3-15.4-5.3s-11.5,1.6-16.9,4.8c-5.3,3.2-10,8-14,14.4-4,6.4-7.2,14.4-9.6,23.8-2.4,9.5-3.6,20.4-3.6,32.7,0,24.2,4.6,42.8,13.8,55.7,9.2,12.9,21.3,19.4,36.2,19.4s11.1-.9,15.4-2.8c4.4-1.9,8.1-4,11.2-6.2,3.1-2.2,5.4-4.3,7.1-6.2,1.7-1.9,2.8-2.8,3.6-2.8,1.7,0,2.5.7,2.5,2.1s-1.1,4.1-3.4,7.3c-2.3,3.2-5.4,6.3-9.4,9.4-4,3.1-8.9,5.7-14.6,8-5.7,2.2-12.1,3.4-19.2,3.4s-17.8-2-25.7-6c-7.9-4-14.9-9.8-20.8-17.2-5.9-7.5-10.5-16.4-13.8-26.8-3.3-10.4-5-22-5-34.8s2-24.4,5.9-34.8c3.9-10.4,9.1-19.3,15.6-26.6,6.5-7.3,14-13,22.5-17,8.5-4,17.3-6,26.3-6s21.6,1.8,28.6,5.5Z"/>
              </g>
              <g class="cls-3">
                <path class="cls-4" d="M423.7,115.1c0,2.6.4,3.9,1.1,3.9s2.4-1.7,4.5-5.1c2-3.4,5.4-7.2,10.2-11.2,5-4.3,9.8-7.5,14.4-9.6,4.6-2.1,10.2-3.2,16.6-3.2,13.3,0,24.1,4.8,32.4,14.4s12.5,22.1,12.5,37.7v88.6c0,5,.9,8.3,2.8,10.1,1.9,1.8,4,3,6.4,3.5,2.4.6,4.5,1.1,6.4,1.4,1.9.4,2.8,1.5,2.8,3.4s-.4,2.7-1.2,3c-.8.4-2.2.5-4.1.5s-4.4-.2-8.2-.7c-3.8-.5-8.8-.7-14.9-.7s-9.3.2-13,.7c-3.7.5-6.8.7-9.4.7s-3.7-.1-4.6-.4c-.9-.2-1.4-1.3-1.4-3.2s1-3,3-3.4c2-.4,4.1-.9,6.4-1.6,2.2-.7,4.4-1.9,6.4-3.7,2-1.8,3-5,3-9.7v-71.2c0-18.4-2.5-32.2-7.5-41.4-5-9.2-13.9-13.8-26.8-13.8s-23.3,5.2-29.1,15.6c-5.8,10.4-8.7,25.7-8.7,46v64.8c0,5,.9,8.3,2.8,10.1,1.9,1.8,4,3,6.4,3.5,2.4.6,4.5,1.1,6.4,1.4,1.9.4,2.8,1.5,2.8,3.4s-.4,2.7-1.2,3c-.8.4-2.2.5-4.1.5s-4.4-.2-8.2-.7c-3.8-.5-8.7-.7-14.7-.7s-9.2.2-12.8.7c-3.7.5-6.8.7-9.4.7s-3.7-.1-4.6-.4c-.9-.2-1.4-1.3-1.4-3.2s.9-3,2.8-3.4c1.9-.4,4-.9,6.4-1.6,2.4-.7,4.5-1.9,6.4-3.7,1.9-1.8,2.8-5,2.8-9.7V42.6c0-10.6-3.7-16-11-16s-.7,0-1.2.2c-.6.1-1.5.2-2.7.2s-2.5-1.1-2.5-3.2,1.4-4.1,4.3-4.6c2.8-.5,6.2-1.3,9.9-2.5,6.1-2.1,10.7-4.3,13.8-6.6,3.1-2.2,5.3-3.4,6.5-3.4s2.4,2.6,2.4,7.8v100.5Z"/>
              </g>
              <g class="cls-3">
                <path class="cls-4" d="M575.6,230.4c0,5,1,8.4,3,10.1,2,1.8,4.3,3,6.7,3.6,2.5.6,4.7,1.1,6.7,1.4,2,.4,3,1.5,3,3.4s-.4,3-1.2,3.2c-.8.2-2.2.4-4.1.4s-4.2-.2-8.3-.7c-4.1-.5-9.6-.7-16.3-.7s-10.1.2-14.2.7c-4.1.5-7.5.7-10.1.7s-3.4-.2-4.4-.5c-1.1-.4-1.6-1.4-1.6-3s1.1-3,3.4-3.4c2.2-.4,4.7-.8,7.3-1.4,2.6-.6,5-1.8,7.3-3.7,2.2-1.9,3.4-5.2,3.4-9.9v-97.4c0-8.7-3.7-13.1-11-13.1s-3.4-.2-4.6-.5c-1.2-.4-1.8-1.4-1.8-3,0-2.4,1.4-4,4.1-5,2.7-.9,5.6-2.7,8.7-5.3,6.6-3.8,11.5-7.2,14.7-10.3,3.2-3.1,5.6-4.6,7-4.6s1.9.5,2.1,1.4c.2,1,.3,2.6.3,5v132.7ZM573.8,34.2c2.6,3.6,3.9,7.7,3.9,12.4s-1.2,8.5-3.7,11.9c-2.5,3.4-5.5,5.1-9.1,5.1s-6.2-1.7-8.7-5c-2.5-3.3-3.7-7.3-3.7-12.1s1.2-8.9,3.7-12.4c2.5-3.5,5.4-5.3,8.7-5.3s6.3,1.8,8.9,5.3Z"/>
              </g>
              <g class="cls-3">
                <path class="cls-4" d="M655.1,214.9c.7,1.7,1.4,2.5,2.1,2.5s1.4-1.1,2.1-3.2l28.8-82.4c1.2-3.3,2.1-6.5,2.8-9.6.7-3.1,1.1-6.3,1.1-9.6s-1-5.1-3-6.2c-2-1.1-4.1-1.8-6.4-2.1-2.3-.4-4.4-.8-6.4-1.2-2-.5-3-1.7-3-3.5s.3-2.3.9-2.7c.6-.4,1.5-.5,2.7-.5s2.9.2,6.6.5c3.7.4,9.3.5,16.9.5s11.1-.2,14.2-.5c3.1-.4,4.8-.5,5.3-.5,1.4,0,2.4.1,2.8.4.5.2.7,1.2.7,2.8,0,2.4-.8,3.6-2.3,3.7-1.5.1-4,.9-7.3,2.3-3.3,1.4-6,3.8-8.2,7.1-2.1,3.3-4.5,8.8-7.1,16.3l-43.7,120c-.7,2.1-1.4,3.8-2,5-.6,1.2-1.5,1.8-2.7,1.8s-2.4-.5-2.8-1.4c-.5-.9-.9-2.4-1.4-4.3l-42.6-134.9c-1.4-4.3-3.1-7-5-8.3-1.9-1.3-3.7-2.2-5.5-2.7-1.8-.5-3.3-.8-4.6-1.1-1.3-.2-2-1.4-2-3.5s.1-2.3.4-2.7c.2-.4.9-.5,2.1-.5h1.4c1.2,0,3.8.2,8,.5,4.1.4,9.5.5,16.2.5s13.4-.2,17.4-.5c4-.4,6.5-.5,7.5-.5s2.1.2,2.8.5,1.1,1.2,1.1,2.7-.9,2.7-2.7,3.2c-1.8.5-3.7,1-5.7,1.6-2,.6-3.9,1.3-5.7,2.1-1.8.8-2.7,2.4-2.7,4.8s.4,5.4,1.1,8.3c.7,3,1.7,6.5,2.8,10.5l24.9,84.9Z"/>
                <path class="cls-4" d="M744.2,152.7c-3.1,0-5,1-5.7,3-.7,2-1.1,6-1.1,11.9,0,11.8,1.4,22.4,4.1,31.6,2.7,9.2,6.5,17,11.4,23.4,4.8,6.4,10.7,11.3,17.4,14.7,6.7,3.4,14.1,5.1,22.2,5.1s13.5-1.2,18.6-3.6c5.1-2.4,9.3-5,12.6-7.8,3.3-2.8,5.9-5.4,7.8-7.8,1.9-2.4,3.2-3.6,3.9-3.6,1.7,0,2.5.9,2.5,2.8s-1.3,6-3.9,10.1c-2.6,4.1-6.3,8.2-11.2,12.1-4.9,3.9-10.8,7.3-17.8,10.1-7,2.8-14.7,4.3-23.3,4.3s-18.6-2-26.8-6c-8.2-4-15.2-9.7-21.1-17-5.9-7.3-10.5-16.2-13.7-26.6-3.2-10.4-4.8-22-4.8-34.8s1.9-24.8,5.7-35.3c3.8-10.5,8.9-19.5,15.3-26.8,6.4-7.3,13.8-13,22.4-16.9s17.5-5.9,27-5.9,15.7,1.5,22.4,4.6c6.6,3.1,12.2,7.2,16.9,12.2,4.6,5.1,8.2,11,10.7,17.8,2.5,6.7,3.7,13.7,3.7,20.8s-.8,4.5-2.3,5.7c-1.5,1.2-4.3,1.8-8.3,1.8h-84.5ZM806,141.5c6.9-1.8,10.3-6.1,10.3-13.1s-.8-7.6-2.5-11.4c-1.7-3.8-4-7.3-6.9-10.4-3-3.1-6.5-5.6-10.5-7.5-4-1.9-8.3-2.9-12.8-2.9s-11.1,1.4-16.3,4.3c-5.2,2.9-9.8,6.4-13.7,10.7-3.9,4.3-7,9.1-9.4,14.3-2.4,5.2-3.5,10.4-3.5,15.4s.4,1.4,1.1,2.1c.7.7,1.7,1.1,2.8,1.1h29.1c14.7,0,25.4-.9,32.3-2.7Z"/>
              </g>
              <g class="cls-3">
                <path class="cls-4" d="M969.3,219.1c0,7.1.3,12.3.9,15.6.6,3.3,2.3,5,5.1,5s2-.4,3.2-1.2c1.2-.8,2.3-1.8,3.4-2.8,1.1-1.1,2.1-2,3.2-2.8,1.1-.8,2.1-1.2,3-1.2s1.1,1.7,1.1,5-.5,4.4-1.4,5.3-3,2-6,3.2c-7.6,3.3-13.3,6.2-17.2,8.7-3.9,2.5-6.6,3.7-8,3.7-2.4,0-3.9-3.1-4.6-9.2l-1.4-16.3h-2.1c-7.8,9-15.5,15.8-23.2,20.4-7.7,4.6-15.6,6.9-23.9,6.9s-15.2-1.9-22.1-5.7-13-9.3-18.1-16.5c-5.1-7.2-9.1-16-12-26.3s-4.4-21.8-4.4-34.6,1.7-25.6,5.1-36.2c3.4-10.7,8.1-19.7,14-27.2,5.9-7.5,13-13.1,21.1-17,8.2-3.9,16.9-5.9,26.1-5.9s11,.5,15.3,1.5c4.3,1,7.8,2.2,10.7,3.5,2.8,1.4,5,2.6,6.6,3.6,1.5,1.1,2.7,1.6,3.4,1.6,1.9,0,2.8-1.3,2.8-3.9v-53.8c0-10.6-3.7-15.9-11-15.9s-.6,0-1.1.2c-.5.1-1.3.2-2.5.2s-1.1-.3-1.8-.9c-.7-.6-1.1-1.4-1.1-2.3,0-2.4,1.4-3.8,4.3-4.4,2.8-.6,6-1.5,9.6-2.7,6.1-2.1,10.8-4.3,14-6.5,3.3-2.2,5.5-3.4,6.6-3.4s2.4,2.6,2.4,7.8v204.5ZM947,114.3c-1.9-3.7-4.4-6.8-7.6-9.4-3.2-2.6-6.9-4.7-11.2-6.2-4.3-1.5-8.9-2.3-13.8-2.3-14.2,0-25.8,6.6-34.8,19.8-9,13.2-13.5,32-13.5,56.4s4.2,42.1,12.6,55c8.4,12.9,19.1,19.4,32.1,19.4s9.8-1.1,14.4-3.2,8.8-5,12.4-8.7c3.7-3.7,6.6-8,8.9-13,2.2-5,3.4-10.4,3.4-16.4v-79.4c0-4.3-.9-8.2-2.8-11.9Z"/>
              </g>
            </g>
            <g class="cls-2">
              <g class="cls-3">
                <g class="cls-3">
                  <path class="cls-4" d="M1015.7,5.6c4.3,0,8.3,1.1,12.1,3.3,3.7,2.2,6.4,5.4,7.9,9.5,1.6,4.1,2,8.4,1.2,12.9-.8,4.4-2.7,8.7-5.7,12.8-3,4.1-6.7,7.3-11.2,9.5s-9,3.4-13.4,3.4-8.5-1.1-12.2-3.4-6.3-5.4-7.9-9.5-1.9-8.4-1.2-12.8c.8-4.5,2.7-8.8,5.7-12.9,3-4.1,6.8-7.3,11.3-9.5,4.5-2.2,8.9-3.3,13.2-3.3ZM1014.9,9.8c-3.6,0-7.3.9-11.1,2.8-3.8,1.9-6.9,4.5-9.4,8-2.5,3.4-4.1,7-4.8,10.8-.7,3.7-.3,7.3,1,10.7,1.3,3.4,3.5,6.1,6.6,8,3.1,1.9,6.5,2.8,10.2,2.8s7.4-.9,11.2-2.8c3.7-1.9,6.9-4.6,9.4-8s4.1-7,4.7-10.7c.7-3.7.3-7.3-1-10.8-1.3-3.4-3.5-6.1-6.6-8-3.1-1.9-6.5-2.8-10.1-2.8ZM997.4,45.6l4.9-27.7h9.5c3.3,0,5.6.3,6.9.8,1.4.5,2.4,1.4,3,2.7.6,1.3.8,2.6.6,4.1-.4,2-1.4,3.8-3.1,5.3-1.7,1.5-3.8,2.3-6.2,2.5.9.4,1.6.9,2.1,1.5.9,1.1,2,2.9,3.1,5.5l2.4,5.4h-5.5l-1.7-4.4c-1.3-3.4-2.5-5.6-3.5-6.5-.7-.6-1.8-1-3.4-1h-2.6l-2.1,11.8h-4.5ZM1004.6,30h5.4c2.6,0,4.4-.4,5.5-1.2s1.7-1.8,2-3.1c.1-.8,0-1.6-.3-2.2-.3-.6-.9-1.1-1.6-1.5s-2.2-.5-4.4-.5h-5.1l-1.5,8.4Z"/>
                </g>
              </g>
            </g>
          </g>
        </g>
      </g>
    </g>
  </g>
</svg>